<svg xmlns="http://www.w3.org/2000/svg" viewBox="0 0 350.48 350.48"><defs><style>.cls-1{fill:none;stroke:#000;stroke-linecap:round;stroke-linejoin:round;stroke-width:4px;}</style></defs><g id="Calque_2" data-name="Calque 2"><g id="Ñëîé_1" data-name="Ñëîé 1"><path class="cls-1" d="M135.87,2h78.74a0,0,0,0,1,0,0V64a16.78,16.78,0,0,1-16.78,16.78H152.65A16.78,16.78,0,0,1,135.87,64V2A0,0,0,0,1,135.87,2Z"/><rect class="cls-1" x="135.87" y="2" width="78.74" height="15.75"/><rect class="cls-1" x="96.49" y="96.49" width="157.49" height="157.49" rx="35.22"/><path class="cls-1" d="M135.87,269.73h78.74a0,0,0,0,1,0,0v62a16.78,16.78,0,0,1-16.78,16.78H152.65a16.78,16.78,0,0,1-16.78-16.78v-62A0,0,0,0,1,135.87,269.73Z" transform="translate(350.48 618.21) rotate(180)"/><rect class="cls-1" x="135.87" y="332.73" width="78.74" height="15.75" transform="translate(350.48 681.2) rotate(180)"/><path class="cls-1" d="M2,135.87H80.74a0,0,0,0,1,0,0v62A16.78,16.78,0,0,1,64,214.61H18.78A16.78,16.78,0,0,1,2,197.83v-62A0,0,0,0,1,2,135.87Z" transform="translate(-133.87 216.61) rotate(-90)"/><rect class="cls-1" x="-29.5" y="167.36" width="78.75" height="15.75" transform="translate(-165.36 185.11) rotate(-90)"/><path class="cls-1" d="M269.73,135.87h78.75a0,0,0,0,1,0,0v62a16.78,16.78,0,0,1-16.78,16.78H286.51a16.78,16.78,0,0,1-16.78-16.78v-62A0,0,0,0,1,269.73,135.87Z" transform="translate(484.34 -133.87) rotate(90)"/><rect class="cls-1" x="301.23" y="167.36" width="78.75" height="15.75" transform="translate(515.84 -165.36) rotate(90)"/></g></g></svg>