<svg xmlns="http://www.w3.org/2000/svg" viewBox="0 0 161.49 350.48"><defs><style>.cls-1{fill:none;stroke:#000;stroke-linecap:round;stroke-linejoin:round;stroke-width:4px;}</style></defs><g id="Calque_2" data-name="Calque 2"><g id="Ñëîé_1" data-name="Ñëîé 1"><path class="cls-1" d="M41.37,2h78.74a0,0,0,0,1,0,0V64a16.78,16.78,0,0,1-16.78,16.78H58.15A16.78,16.78,0,0,1,41.37,64V2A0,0,0,0,1,41.37,2Z"/><rect class="cls-1" x="41.37" y="2" width="78.74" height="15.75"/><rect class="cls-1" x="2" y="96.49" width="157.49" height="157.49" rx="35.22"/><path class="cls-1" d="M41.37,269.73h78.74a0,0,0,0,1,0,0v62a16.78,16.78,0,0,1-16.78,16.78H58.15a16.78,16.78,0,0,1-16.78-16.78v-62a0,0,0,0,1,0,0Z" transform="translate(161.49 618.21) rotate(180)"/><rect class="cls-1" x="41.37" y="332.73" width="78.74" height="15.75" transform="translate(161.49 681.2) rotate(180)"/></g></g></svg>