<svg xmlns="http://www.w3.org/2000/svg" viewBox="0 0 351.48 351.48"><defs><style>.cls-1{fill:none;stroke:#000;stroke-linecap:round;stroke-linejoin:round;stroke-width:5px;}</style></defs><g id="Calque_2" data-name="Calque 2"><g id="Ñëîé_1" data-name="Ñëîé 1"><path class="cls-1" d="M136.37,2.5h78.74a0,0,0,0,1,0,0v62a16.78,16.78,0,0,1-16.78,16.78H153.15a16.78,16.78,0,0,1-16.78-16.78V2.5A0,0,0,0,1,136.37,2.5Z"/><rect class="cls-1" x="136.37" y="2.5" width="78.74" height="15.75"/><rect class="cls-1" x="96.99" y="96.99" width="157.49" height="157.49" rx="35.22"/><path class="cls-1" d="M136.37,270.23h78.74a0,0,0,0,1,0,0v62A16.78,16.78,0,0,1,198.33,349H153.15a16.78,16.78,0,0,1-16.78-16.78v-62A0,0,0,0,1,136.37,270.23Z" transform="translate(351.48 619.21) rotate(180)"/><rect class="cls-1" x="136.37" y="333.23" width="78.74" height="15.75" transform="translate(351.48 682.2) rotate(180)"/><path class="cls-1" d="M2.5,136.37H81.24a0,0,0,0,1,0,0v62a16.78,16.78,0,0,1-16.78,16.78H19.28A16.78,16.78,0,0,1,2.5,198.33v-62A0,0,0,0,1,2.5,136.37Z" transform="translate(-133.87 217.61) rotate(-90)"/><rect class="cls-1" x="-29" y="167.86" width="78.75" height="15.75" transform="translate(-165.36 186.11) rotate(-90)"/><path class="cls-1" d="M270.23,136.37H349a0,0,0,0,1,0,0v62a16.78,16.78,0,0,1-16.78,16.78H287a16.78,16.78,0,0,1-16.78-16.78v-62A0,0,0,0,1,270.23,136.37Z" transform="translate(485.34 -133.87) rotate(90)"/><rect class="cls-1" x="301.73" y="167.86" width="78.75" height="15.75" transform="translate(516.84 -165.36) rotate(90)"/></g></g></svg>