<svg xmlns="http://www.w3.org/2000/svg" viewBox="0 0 664.46 349.48"><defs><style>.cls-1{fill:none;stroke:#000;stroke-linecap:round;stroke-linejoin:round;stroke-width:3px;}</style></defs><g id="Calque_2" data-name="Calque 2"><g id="Ñëîé_1" data-name="Ñëîé 1"><path class="cls-1" d="M135.37,1.5h78.74a0,0,0,0,1,0,0v62a16.78,16.78,0,0,1-16.78,16.78H152.15a16.78,16.78,0,0,1-16.78-16.78V1.5A0,0,0,0,1,135.37,1.5Z"/><rect class="cls-1" x="135.37" y="1.5" width="78.74" height="15.75"/><path class="cls-1" d="M489.72,253.48h-315A78.74,78.74,0,0,1,96,174.74h0A78.75,78.75,0,0,1,174.74,96h315a78.74,78.74,0,0,1,78.74,78.75h0A78.74,78.74,0,0,1,489.72,253.48Z"/><path class="cls-1" d="M135.37,269.23h78.74a0,0,0,0,1,0,0v62A16.78,16.78,0,0,1,197.33,348H152.15a16.78,16.78,0,0,1-16.78-16.78v-62A0,0,0,0,1,135.37,269.23Z" transform="translate(349.48 617.21) rotate(180)"/><rect class="cls-1" x="135.37" y="332.23" width="78.74" height="15.75" transform="translate(349.48 680.2) rotate(180)"/><path class="cls-1" d="M450.34,269.23h78.74a0,0,0,0,1,0,0v62A16.78,16.78,0,0,1,512.31,348H467.13a16.78,16.78,0,0,1-16.78-16.78v-62A0,0,0,0,1,450.34,269.23Z" transform="translate(979.43 617.21) rotate(180)"/><rect class="cls-1" x="450.34" y="332.23" width="78.74" height="15.75" transform="translate(979.43 680.2) rotate(180)"/><path class="cls-1" d="M450.34,1.5h78.74a0,0,0,0,1,0,0v62a16.78,16.78,0,0,1-16.78,16.78H467.13a16.78,16.78,0,0,1-16.78-16.78V1.5a0,0,0,0,1,0,0Z"/><rect class="cls-1" x="450.34" y="1.5" width="78.74" height="15.75"/><path class="cls-1" d="M292.86,269.23H371.6a0,0,0,0,1,0,0v62A16.78,16.78,0,0,1,354.82,348H309.64a16.78,16.78,0,0,1-16.78-16.78v-62A0,0,0,0,1,292.86,269.23Z" transform="translate(664.46 617.21) rotate(180)"/><rect class="cls-1" x="292.86" y="332.23" width="78.75" height="15.75" transform="translate(664.46 680.2) rotate(180)"/><path class="cls-1" d="M292.86,1.5H371.6a0,0,0,0,1,0,0v62a16.78,16.78,0,0,1-16.78,16.78H309.64a16.78,16.78,0,0,1-16.78-16.78V1.5A0,0,0,0,1,292.86,1.5Z"/><rect class="cls-1" x="292.86" y="1.5" width="78.75" height="15.75"/><path class="cls-1" d="M1.5,135.37H80.24a0,0,0,0,1,0,0v62a16.78,16.78,0,0,1-16.78,16.78H18.28A16.78,16.78,0,0,1,1.5,197.33v-62a0,0,0,0,1,0,0Z" transform="translate(-133.87 215.61) rotate(-90)"/><rect class="cls-1" x="-30" y="166.86" width="78.74" height="15.75" transform="translate(-165.36 184.11) rotate(-90)"/><path class="cls-1" d="M584.21,135.37H663a0,0,0,0,1,0,0v62a16.78,16.78,0,0,1-16.78,16.78H601a16.78,16.78,0,0,1-16.78-16.78v-62A0,0,0,0,1,584.21,135.37Z" transform="translate(798.32 -448.84) rotate(90)"/><rect class="cls-1" x="615.71" y="166.86" width="78.74" height="15.75" transform="translate(829.82 -480.34) rotate(90)"/></g></g></svg>