<svg id="Calque_1" data-name="Calque 1" xmlns="http://www.w3.org/2000/svg" viewBox="0 0 51.59 28.25"><defs><style>.cls-1{fill:none;stroke:#000;stroke-linecap:round;stroke-linejoin:round;}</style></defs><path class="cls-1" d="M10.74.5h6a0,0,0,0,1,0,0V3.89A2.8,2.8,0,0,1,14,6.69h-.42a2.8,2.8,0,0,1-2.8-2.8V.5A0,0,0,0,1,10.74.5Z"/><rect class="cls-1" x="10.74" y="0.5" width="6.02" height="1.24"/><rect class="cls-1" x="7.73" y="7.93" width="36.14" height="12.38"/><path class="cls-1" d="M16.94,39.43h6a0,0,0,0,1,0,0v3.39a2.8,2.8,0,0,1-2.8,2.8h-.42a2.8,2.8,0,0,1-2.8-2.8V39.43a0,0,0,0,1,0,0Z" transform="translate(33.7 67.18) rotate(-180)"/><rect class="cls-1" x="16.94" y="44.38" width="6.02" height="1.24" transform="translate(33.7 72.13) rotate(180)"/><path class="cls-1" d="M41,39.43h6a0,0,0,0,1,0,0v3.39a2.8,2.8,0,0,1-2.8,2.8h-.42a2.8,2.8,0,0,1-2.8-2.8V39.43A0,0,0,0,1,41,39.43Z" transform="translate(81.89 67.18) rotate(-180)"/><rect class="cls-1" x="41.03" y="44.38" width="6.02" height="1.24" transform="translate(81.89 72.13) rotate(180)"/><path class="cls-1" d="M34.83.5h6a0,0,0,0,1,0,0V3.89A2.8,2.8,0,0,1,38,6.69h-.42a2.8,2.8,0,0,1-2.8-2.8V.5A0,0,0,0,1,34.83.5Z"/><rect class="cls-1" x="34.83" y="0.5" width="6.02" height="1.24"/><path class="cls-1" d="M29,39.43h6a0,0,0,0,1,0,0v3.39a2.8,2.8,0,0,1-2.8,2.8h-.42a2.8,2.8,0,0,1-2.8-2.8V39.43A0,0,0,0,1,29,39.43Z" transform="translate(57.8 67.18) rotate(180)"/><rect class="cls-1" x="28.99" y="44.38" width="6.02" height="1.24" transform="translate(57.8 72.13) rotate(180)"/><path class="cls-1" d="M22.78.5h6a0,0,0,0,1,0,0V3.89A2.8,2.8,0,0,1,26,6.69h-.42a2.8,2.8,0,0,1-2.8-2.8V.5A0,0,0,0,1,22.78.5Z"/><rect class="cls-1" x="22.78" y="0.5" width="6.02" height="1.24"/><path class="cls-1" d="M6.62,29h6.19a0,0,0,0,1,0,0v3.22A2.8,2.8,0,0,1,10,35H9.42a2.8,2.8,0,0,1-2.8-2.8V29A0,0,0,0,1,6.62,29Z" transform="translate(-28.49 23.84) rotate(-90)"/><rect class="cls-1" x="4.21" y="31.4" width="6.19" height="1.2" transform="translate(-30.9 21.43) rotate(-90)"/><path class="cls-1" d="M51.19,29h6.19a0,0,0,0,1,0,0v3.22a2.8,2.8,0,0,1-2.8,2.8H54a2.8,2.8,0,0,1-2.8-2.8V29a0,0,0,0,1,0,0Z" transform="translate(80.08 -40.16) rotate(90)"/><rect class="cls-1" x="53.6" y="31.4" width="6.19" height="1.2" transform="translate(82.49 -42.57) rotate(90)"/></svg>