<svg id="Calque_1" data-name="Calque 1" xmlns="http://www.w3.org/2000/svg" viewBox="0 0 17.57 37.46"><defs><style>.cls-1{fill:none;stroke:#000;stroke-linecap:round;stroke-linejoin:round;}</style></defs><path class="cls-1" d="M4.64.5h8.29a0,0,0,0,1,0,0V5A3.79,3.79,0,0,1,9.14,8.79H8.43A3.79,3.79,0,0,1,4.64,5V.5a0,0,0,0,1,0,0Z"/><rect class="cls-1" x="4.64" y="0.5" width="8.29" height="1.66"/><rect class="cls-1" x="0.5" y="10.44" width="16.57" height="16.57"/><path class="cls-1" d="M28.44,41.94h8.29a0,0,0,0,1,0,0v4.5a3.79,3.79,0,0,1-3.79,3.79h-.71a3.79,3.79,0,0,1-3.79-3.79v-4.5A0,0,0,0,1,28.44,41.94Z" transform="translate(41.37 78.91) rotate(-180)"/><rect class="cls-1" x="28.44" y="48.57" width="8.29" height="1.66" transform="translate(41.37 85.54) rotate(180)"/></svg>